HIERARCHY
ROOT hip
{
  OFFSET 0 0 0
  CHANNELS 6 Xposition Yposition Zposition Zrotation Yrotation Xrotation
  JOINT abdomen
  {
    OFFSET 0 20.6881 -0.73152
    CHANNELS 3 Zrotation Xrotation Yrotation
    JOINT chest
    {
      OFFSET 0 11.7043 -0.48768
      CHANNELS 3 Zrotation Xrotation Yrotation
      JOINT neck
      {
        OFFSET 0 22.1894 -2.19456
        CHANNELS 3 Zrotation Xrotation Yrotation
        JOINT head
        {
          OFFSET -0.24384 7.07133 1.2192
          CHANNELS 3 Zrotation Xrotation Yrotation
          JOINT leftEye
          {
            OFFSET 4.14528 8.04674 8.04672
            CHANNELS 3 Zrotation Xrotation Yrotation
            End Site
            {
              OFFSET 1 0 0
            }
          }
          JOINT rightEye
          {
            OFFSET -3.6576 8.04674 8.04672
            CHANNELS 3 Zrotation Xrotation Yrotation
            End Site
            {
              OFFSET 1 0 0
            }
          }
        }
      }
      JOINT rCollar
      {
        OFFSET -2.68224 19.2634 -4.8768
        CHANNELS 3 Zrotation Xrotation Yrotation
        JOINT rShldr
        {
          OFFSET -8.77824 -1.95073 1.46304
          CHANNELS 3 Zrotation Xrotation Yrotation
          JOINT rForeArm
          {
            OFFSET -28.1742 -1.7115 0.48768
            CHANNELS 3 Zrotation Xrotation Yrotation
            JOINT rHand
            {
              OFFSET -22.5879 0.773209 7.07136
              CHANNELS 3 Zrotation Xrotation Yrotation
              JOINT rThumb1
              {
                OFFSET -1.2192 -0.487915 3.41376
                CHANNELS 3 Zrotation Xrotation Yrotation
                JOINT rThumb2
                {
                  OFFSET -3.37035 -0.52449 3.41376
                  CHANNELS 3 Zrotation Xrotation Yrotation
                  End Site
                  {
                    OFFSET -1.78271 -1.18214 1.43049
                  }
                }
              }
              JOINT rIndex1
              {
                OFFSET -7.75947 0.938293 5.60832
                CHANNELS 3 Zrotation Xrotation Yrotation
                JOINT rIndex2
                {
                  OFFSET -2.54057 -0.884171 1.56538
                  CHANNELS 3 Zrotation Xrotation Yrotation
                  End Site
                  {
                    OFFSET -1.62519 -0.234802 1.16502
                  }
                }
              }
              JOINT rMid1
              {
                OFFSET -8.24714 1.18213 3.41376
                CHANNELS 3 Zrotation Xrotation Yrotation
                JOINT rMid2
                {
                  OFFSET -3.10165 -0.590103 1.0647
                  CHANNELS 3 Zrotation Xrotation Yrotation
                  End Site
                  {
                    OFFSET -2.48547 -0.328903 0.83742
                  }
                }
              }
              JOINT rRing1
              {
                OFFSET -8.82822 0.546677 1.51678
                CHANNELS 3 Zrotation Xrotation Yrotation
                JOINT rRing2
                {
                  OFFSET -2.60934 -0.819778 -0.0198488
                  CHANNELS 3 Zrotation Xrotation Yrotation
                  End Site
                  {
                    OFFSET -2.33842 -0.294052 0.168128
                  }
                }
              }
              JOINT rPinky1
              {
                OFFSET -8.27202 -0.0477905 -0.4584
                CHANNELS 3 Zrotation Xrotation Yrotation
                JOINT rPinky2
                {
                  OFFSET -1.82734 -0.647385 -0.700984
                  CHANNELS 3 Zrotation Xrotation Yrotation
                  End Site
                  {
                    OFFSET -1.69225 -0.51767 -0.607171
                  }
                }
              }
            }
          }
        }
      }
      JOINT lCollar
      {
        OFFSET 2.68224 19.2634 -4.8768
        CHANNELS 3 Zrotation Xrotation Yrotation
        JOINT lShldr
        {
          OFFSET 8.77824 -1.95073 1.46304
          CHANNELS 3 Zrotation Xrotation Yrotation
          JOINT lForeArm
          {
            OFFSET 28.1742 -1.7115 0.48768
            CHANNELS 3 Zrotation Xrotation Yrotation
            JOINT lHand
            {
              OFFSET 22.5879 0.773209 7.07136
              CHANNELS 3 Zrotation Xrotation Yrotation
              JOINT lThumb1
              {
                OFFSET 1.2192 -0.487915 3.41376
                CHANNELS 3 Zrotation Xrotation Yrotation
                JOINT lThumb2
                {
                  OFFSET 3.37035 -0.52449 3.41376
                  CHANNELS 3 Zrotation Xrotation Yrotation
                  End Site
                  {
                    OFFSET 1.78271 -1.18214 1.43049
                  }
                }
              }
              JOINT lIndex1
              {
                OFFSET 7.75947 0.938293 5.60832
                CHANNELS 3 Zrotation Xrotation Yrotation
                JOINT lIndex2
                {
                  OFFSET 2.54057 -0.884171 1.56538
                  CHANNELS 3 Zrotation Xrotation Yrotation
                  End Site
                  {
                    OFFSET 1.62519 -0.234802 1.16502
                  }
                }
              }
              JOINT lMid1
              {
                OFFSET 8.24714 1.18213 3.41376
                CHANNELS 3 Zrotation Xrotation Yrotation
                JOINT lMid2
                {
                  OFFSET 3.10165 -0.590103 1.0647
                  CHANNELS 3 Zrotation Xrotation Yrotation
                  End Site
                  {
                    OFFSET 2.48547 -0.328903 0.83742
                  }
                }
              }
              JOINT lRing1
              {
                OFFSET 8.82822 0.546677 1.51678
                CHANNELS 3 Zrotation Xrotation Yrotation
                JOINT lRing2
                {
                  OFFSET 2.60934 -0.819778 -0.0198488
                  CHANNELS 3 Zrotation Xrotation Yrotation
                  End Site
                  {
                    OFFSET 2.33842 -0.294052 0.168128
                  }
                }
              }
              JOINT lPinky1
              {
                OFFSET 8.27202 -0.0477905 -0.4584
                CHANNELS 3 Zrotation Xrotation Yrotation
                JOINT lPinky2
                {
                  OFFSET 1.82734 -0.647385 -0.700984
                  CHANNELS 3 Zrotation Xrotation Yrotation
                  End Site
                  {
                    OFFSET 1.69225 -0.51767 -0.607171
                  }
                }
              }
            }
          }
        }
      }
    }
  }
  JOINT rButtock
  {
    OFFSET -8.77824 4.35084 1.2192
    CHANNELS 3 Zrotation Xrotation Yrotation
    JOINT rThigh
    {
      OFFSET 0 -1.70687 -2.19456
      CHANNELS 3 Zrotation Xrotation Yrotation
      JOINT rShin
      {
        OFFSET 0 -36.8199 0.73152
        CHANNELS 3 Zrotation Xrotation Yrotation
        JOINT rFoot
        {
          OFFSET 0.73152 -45.1104 -5.12064
          CHANNELS 3 Zrotation Xrotation Yrotation
          End Site
          {
            OFFSET -1.1221 -3.69964 12.103
          }
        }
      }
    }
  }
  JOINT lButtock
  {
    OFFSET 8.77824 4.35084 1.2192
    CHANNELS 3 Zrotation Xrotation Yrotation
    JOINT lThigh
    {
      OFFSET 0 -1.70687 -2.19456
      CHANNELS 3 Zrotation Xrotation Yrotation
      JOINT lShin
      {
        OFFSET 0 -36.8199 0.73152
        CHANNELS 3 Zrotation Xrotation Yrotation
        JOINT lFoot
        {
          OFFSET -0.73152 -45.1104 -5.12064
          CHANNELS 3 Zrotation Xrotation Yrotation
          End Site
          {
            OFFSET 1.1221 -3.69964 12.103
          }
        }
      }
    }
  }
}
MOTION
Frames:	4
Frame Time:	0.00833333
2.6491 84.9173 -157.087 0.0 0.0 0.0 -0.140625 -0.000295016 -0.00400525 -0.0387669 -0.00039455 -0.00671563 5.90906e-16 -7.95139e-16 -1.93874e-24 1.79527e-15 3.18055e-15 -3.10601e-18 -0.0 0.0 0.0 -0.0 0.0 0.0 3.46561e-16 5.82377e-19 1.49089e-16 8.71983e-15 3.10601e-17 9.93923e-16 1.11717e-13 -2.92213e-14 2.22639e-14 1.25049e-12 4.29375e-14 -2.54444e-14 2.95201e-12 2.77681e-14 0.0 5.08928e-12 4.77083e-14 -1.43125e-14 2.95633e-12 2.90226e-14 -1.59028e-14 7.73091 5.47488 0.417314 2.95205e-12 2.78299e-14 -3.18055e-15 2.90554 0.965183 0.102902 2.95498e-12 2.80286e-14 -3.97569e-15 10.2786 0.731801 0.0259123 2.9446e-12 2.90226e-14 6.36111e-15 2.22167 -0.733487 -0.20892 3.49205e-16 1.16475e-18 -1.49089e-16 4.00627e-15 3.10601e-17 -9.93923e-16 1.06598e-13 3.598e-14 -3.18055e-15 1.25385e-12 -2.17421e-14 1.59028e-14 2.95109e-12 2.87695e-14 0.0 5.10479e-12 4.77083e-14 3.18055e-15 2.94519e-12 2.98177e-14 9.54166e-15 -7.73091 5.47488 -0.417314 2.95061e-12 2.89232e-14 0.0 -2.90554 0.965183 -0.102902 2.94098e-12 2.9122e-14 -7.95139e-16 -10.2786 0.731801 -0.0259123 2.9601e-12 3.10104e-14 -1.27222e-14 -2.22167 -0.733487 0.20892 -2.03217e-16 0.0 -3.88251e-19 0.415453 -2.89234 -0.0363695 -0.0065758 -0.313961 -0.0578454 -0.521685 3.20536 0.125418 2.03217e-16 0.0 3.88251e-19 -0.629352 -3.43714 0.0497311 0.00497788 0.672914 0.0432305 0.523143 2.76331 -0.116511
2.81543 83.2839 -158.788 -1.1709 5.2702 4.6319 -0.0796932 -0.942112 -0.908471 1.03876 -0.442549 -0.25974 1.09229 -0.823067 -1.64864 -3.17453 1.775 -3.45485 -0.0 0.0 0.0 -0.0 0.0 0.0 -9.77679e-15 -2.18909e-14 4.20713e-14 20.3443 0.438681 -1.58876 -3.75696 -1.62435 5.95469 0.00346287 -1.30551 -0.183306 3.77625e-11 4.98376e-10 3.72164e-10 6.34209e-11 8.64649e-10 6.44215e-10 3.77665e-11 4.9838e-10 3.72146e-10 7.73091 5.47488 0.417314 3.77631e-11 4.98376e-10 3.72161e-10 2.90554 0.965183 0.102902 3.77679e-11 4.98377e-10 3.7216e-10 10.2786 0.731801 0.0259123 3.7759e-11 4.98377e-10 3.72169e-10 2.22167 -0.733487 -0.20892 -9.80181e-15 -2.18909e-14 4.17844e-14 -20.8613 5.01651 2.0589 4.9135 -2.39052 -7.49534 -0.0118393 -2.41409 0.338191 4.35358e-11 -4.68887e-10 1.6998e-10 7.3583e-11 -8.13859e-10 2.94998e-10 4.3531e-11 -4.68886e-10 1.69987e-10 -7.73091 5.47488 -0.417314 4.35366e-11 -4.68887e-10 1.69977e-10 -2.90554 0.965183 -0.102902 4.3527e-11 -4.68886e-10 1.69979e-10 -10.2786 0.731801 -0.0259123 4.35443e-11 -4.68884e-10 1.6997e-10 -2.22167 -0.733487 0.20892 -2.03217e-16 0.0 -3.88251e-19 0.357783 -5.75991 -1.22644 0.0157054 7.65428 0.0947973 -1.20167 -0.500875 -6.74525 2.03217e-16 0.0 3.88251e-19 -0.0267597 -6.05866 -0.264603 -0.00854906 7.62637 -0.0743962 0.830251 -0.511573 3.85679
2.80754 83.2834 -158.788 -1.1713 5.1848 4.6406 -0.0491569 -1.93812 -1.86189 2.17199 -0.909601 -0.526281 2.19271 -1.68837 -3.39672 -6.29303 3.62726 -7.12554 -0.0 0.0 0.0 -0.0 0.0 0.0 -2.08424e-14 -4.53314e-14 9.00836e-14 41.8786 0.895333 -3.27131 -7.36307 -3.28266 12.264 -0.00197218 -2.68776 -0.377709 7.0288e-11 1.05686e-09 7.88205e-10 1.17595e-10 1.83354e-09 1.3644e-09 7.02917e-11 1.05687e-09 7.88187e-10 7.73091 5.47488 0.417314 7.02891e-11 1.05686e-09 7.88204e-10 2.90554 0.965183 0.102902 7.02959e-11 1.05686e-09 7.88202e-10 10.2786 0.731801 0.0259123 7.02886e-11 1.05686e-09 7.8821e-10 2.22167 -0.733487 -0.20892 -2.08975e-14 -4.53322e-14 8.98072e-14 -43.3099 10.3088 4.28809 9.4399 -4.78603 -15.4697 0.00674699 -4.96874 0.698114 8.52716e-11 -9.90798e-10 3.58195e-10 1.43885e-10 -1.71971e-09 6.21596e-10 8.52679e-11 -9.90798e-10 3.582e-10 -7.73091 5.47488 -0.417314 8.52739e-11 -9.90798e-10 3.58189e-10 -2.90554 0.965183 -0.102902 8.52641e-11 -9.90797e-10 3.58194e-10 -10.2786 0.731801 -0.0259123 8.52796e-11 -9.90794e-10 3.58188e-10 -2.22167 -0.733487 0.20892 -2.03217e-16 0.0 -3.88251e-19 0.165543 -8.78455 -2.5012 -0.00841204 16.0777 0.264749 -2.88 -4.29549 -14.0501 2.03217e-16 0.0 3.88251e-19 0.578155 -8.82911 -0.601641 0.00914457 14.9769 -0.204322 1.64786 -3.93694 8.07436
2.78184 83.2839 -158.784 -1.2543 5.1002 4.6275 -0.0470888 -2.82292 -2.72034 3.1821 -1.32675 -0.76597 3.13487 -2.46102 -4.95 -8.883 5.24749 -10.4036 -0.0 0.0 0.0 -0.0 0.0 0.0 -3.00235e-14 -6.56739e-14 1.25916e-13 61.1057 1.312 -4.76739 -10.2734 -4.66291 17.9182 -0.0147212 -3.91638 -0.551062 1.07384e-10 1.49507e-09 1.11649e-09 1.80084e-10 2.59385e-09 1.93267e-09 1.07387e-10 1.49508e-09 1.11647e-09 7.73091 5.47488 0.417314 1.07385e-10 1.49507e-09 1.11649e-09 2.90554 0.965183 0.102902 1.07394e-10 1.49507e-09 1.11649e-09 10.2786 0.731801 0.0259123 1.07388e-10 1.49507e-09 1.11649e-09 2.22167 -0.733487 -0.20892 -3.01038e-14 -6.56751e-14 1.25651e-13 -63.6955 14.9704 6.37009 12.907 -6.68172 -22.6285 0.050558 -7.24125 1.02182 1.24705e-10 -1.40672e-09 5.0994e-10 2.1054e-10 -2.44167e-09 8.84988e-10 1.24703e-10 -1.40672e-09 5.09943e-10 -7.73091 5.47488 -0.417314 1.24709e-10 -1.40672e-09 5.09931e-10 -2.90554 0.965183 -0.102902 1.24699e-10 -1.40672e-09 5.09938e-10 -10.2786 0.731801 -0.0259123 1.24713e-10 -1.40671e-09 5.09935e-10 -2.22167 -0.733487 0.20892 -2.03217e-16 0.0 -3.88251e-19 -0.121337 -11.4761 -3.66139 -0.0760925 23.5902 0.4338 -5.18664 -7.41982 -20.6663 2.03217e-16 0.0 3.88251e-19 1.09058 -11.3005 -0.906228 0.0551617 21.533 -0.330754 2.80435 -6.91474 11.8904
